<svg xmlns="http://www.w3.org/2000/svg" xmlns:xlink="http://www.w3.org/1999/xlink" id="Layer_1" data-name="Layer 1" viewBox="0 0 826.67 371.11"><defs><style>.cls-1{fill:url(#linear-gradient);}</style><linearGradient id="linear-gradient" x1="83.29" y1="395.16" x2="605.88" y2="-127.43" gradientUnits="userSpaceOnUse"><stop offset="0" stop-color="#f1696c"></stop><stop offset="1" stop-color="#e83627"></stop></linearGradient></defs><title>logo files</title><path class="cls-1" d="M5.67,163.35v-46H46.92V69.06H19.64V33.92Q34.7,32.84,43.1,26.17T55,6.86H95.81V117.3h37.32v46.05Zm205.05,1.85a100.5,100.5,0,0,1-20.63-4.91Q172.42,154,163.9,141.52t-10-30.12h54.57v.22q1.08,6.76,8.18,10.7t20.85,3.92q14.17,0,21.28-4.47t7.09-13.2c0-6.12-2.29-10.51-6.88-13.21s-10.95-4-19.09-4a61.35,61.35,0,0,0-20.19,3,40.78,40.78,0,0,0-13.42,7.31l-2.19,1.31-46.7-11.57L167.61,6.86h143a108.84,108.84,0,0,1-1.63,21.06q-1.65,8-6.22,12.11-4.82,4.15-13.65,5.68a141.61,141.61,0,0,1-23.24,1.53H210q-.89,7.2-1.86,15.06c-.65,5.23-1.28,10.11-1.85,14.62A56.19,56.19,0,0,1,226.11,64.8q12-4.47,28.59-4.47,30.12,0,46.38,12.66t16.26,38.41q0,26.64-20.74,41t-59.8,14.4A187.55,187.55,0,0,1,210.72,165.2Zm128.88-1.85v-33q0-14.17,6-23.46a47.2,47.2,0,0,1,16-15.17,93.9,93.9,0,0,1,22.59-9.38q12.54-3.5,25.64-5.9A287.5,287.5,0,0,0,440,69.17q11.36-3.6,11.35-11.24a11.63,11.63,0,0,0-6-10.59q-6-3.6-20.84-3.6-17.25,0-25,5.79t-8,16.69v.88H341.13V65.79q.87-30.56,21.72-46.38T425.16,3.58a166,166,0,0,1,24.45,1.64,98.14,98.14,0,0,1,19.2,4.69q16.81,6.56,24.67,17.9t7.85,26.63a46.87,46.87,0,0,1-1.63,12.77,30.91,30.91,0,0,1-4.91,10.15Q488.24,86.3,476.45,92a142.3,142.3,0,0,1-27.94,9.6q-7.2,1.76-13.64,3.38t-12.33,3a147,147,0,0,0-19.2,5.13q-7.65,2.73-10.48,7.31H499.15v43ZM69.07,358.57a100.48,100.48,0,0,1-21.72-6.22q-19.64-8.52-30.22-26t-10.59-45v-4.36a93.93,93.93,0,0,1,2.84-23.79,72.28,72.28,0,0,1,8.51-20.08,74.61,74.61,0,0,1,31.86-27.39q20.31-9.51,47.15-9.5a141,141,0,0,1,23.46,1.86A105.76,105.76,0,0,1,141,203.71a71.16,71.16,0,0,1,30.66,22.92q11.68,15.27,14.08,38.63v1.09H131.6v-.43a27.76,27.76,0,0,0-10-18.56q-8.5-7-24.44-7-18.33,0-28.59,9.17T58.27,277.48v2.84q0,18.12,9.93,26.95t28,8.84q17,0,25.54-7.31t10-20v-.65h54.35v.87q-2.85,35.58-26.41,53.58t-65,18A149.74,149.74,0,0,1,69.07,358.57Zm195.34-.11a83.55,83.55,0,0,1-20.19-5.9q-17.68-7.85-26-22.59T210,294.73v-.88a73.39,73.39,0,0,1,2.41-19.2,56.37,56.37,0,0,1,7.42-16.59q9.81-15.06,27.93-23.36t42.78-8.29a123.12,123.12,0,0,1,23.36,2.07,97.87,97.87,0,0,1,19.86,6q17.9,8.3,27.61,23.35t9.71,36v.88q0,30.33-20.52,48t-60.45,17.68A152.56,152.56,0,0,1,264.41,358.46Zm48.89-44.31q7.53-6.56,7.53-19.64v-.66q0-14.18-7.53-21.17t-22.59-7q-14.62,0-22.48,7t-7.86,21.17v.66q0,13.1,7.53,19.64t22.59,6.55Q305.77,320.7,313.3,314.15ZM419.37,359a40.52,40.52,0,0,1-7.75-1.63,14.92,14.92,0,0,1-9.05-8q-2.74-5.77-2.73-16.48,0-16.16,7.09-21.5t22.59-5.35q15.5,0,22.48,5.35t7,21.5q0,15.29-6.76,20.95t-22.7,5.68A85.19,85.19,0,0,1,419.37,359ZM612.62,163.27,690.86,85,612.62,6.78H546.18L624.47,85l-78.29,78.25Zm127.47,0L818.33,85,740.09,6.78H673.65L751.94,85l-78.29,78.25Z"></path></svg>