<?xml version="1.0" encoding="utf-8"?>
<!-- Generator: Adobe Illustrator 24.3.0, SVG Export Plug-In . SVG Version: 6.00 Build 0)  -->
<svg version="1.1" id="Layer_1" xmlns="http://www.w3.org/2000/svg" xmlns:xlink="http://www.w3.org/1999/xlink" x="0px" y="0px"
	 viewBox="0 0 200 60" style="enable-background:new 0 0 200 60;" xml:space="preserve">
<style type="text/css">
	.st0{fill:#131415;}
	.st1{fill-rule:evenodd;clip-rule:evenodd;fill:#BAD532;}
	.st2{fill-rule:evenodd;clip-rule:evenodd;fill:#0E0E0E;}
	.st3{fill:#0E0E0E;}
	.st4{fill-rule:evenodd;clip-rule:evenodd;fill:#010101;}
</style>
<g>
	<path class="st0" d="M22.2,49.2c0,2.7-1.2,4.4-3.5,5.2c-0.8,0.3-1.7,0.4-2.6,0.4c-2,0-3.8-0.6-5.5-1.8l1.8-3.3
		c1.2,1.1,2.4,1.7,3.6,1.7c0.5,0,1-0.1,1.4-0.4c0.4-0.3,0.7-0.7,0.7-1.2c0-0.5-0.2-0.9-0.7-1.2c-0.4-0.2-1-0.5-1.8-0.7
		c-1-0.3-1.7-0.5-1.9-0.6c-0.4-0.2-0.8-0.4-1.1-0.6c-0.8-0.7-1.3-1.8-1.3-3.2c0-1.5,0.4-2.7,1.3-3.7c1-1.1,2.4-1.7,4.1-1.7
		c1.7,0,3.4,0.4,5,1.3l-1.6,3.2c-0.9-0.7-1.8-1.1-2.7-1.1c-0.4,0-0.8,0.1-1.2,0.3c-0.4,0.3-0.6,0.6-0.6,1c0,0.4,0.3,0.8,0.8,1.1
		c0.2,0.1,0.9,0.4,2.1,0.7c1.5,0.4,2.5,1,3.1,1.8C21.9,47.3,22.2,48.2,22.2,49.2"/>
	<path class="st0" d="M33.4,48.6l-1.7-5.1l-1.7,5.1H33.4z M39.9,54.5h-4.4l-1-2.8h-5.7l-1.1,2.8h-4.4l6.1-15.9h4.5L39.9,54.5z"/>
	<polygon class="st0" points="50.8,42.1 45.8,42.1 45.8,44.8 50.4,44.8 50.4,48.2 45.8,48.2 45.8,54.5 41.7,54.5 41.7,38.6 
		50.8,38.6 	"/>
	<polygon class="st0" points="62.3,54.5 53.3,54.5 53.3,38.6 62.3,38.6 62.3,42.1 57.4,42.1 57.4,44.8 62,44.8 62,48.2 57.4,48.2 
		57.4,51.1 62.3,51.1 	"/>
	<polygon class="st0" points="74.3,42.1 70.9,42.1 70.9,54.5 66.8,54.5 66.8,42.1 63.4,42.1 63.4,38.6 74.3,38.6 	"/>
	<polygon class="st0" points="90,38.6 84,46.9 84,54.5 79.9,54.5 79.9,46.9 74.2,38.6 79.1,38.6 82.1,43 85,38.6 	"/>
	<path class="st0" d="M104.9,51.1l-2.8-2.7c-0.8,0.5-1.2,1.2-1.2,2.1c0,0.4,0.2,0.7,0.5,1.1c0.3,0.3,0.7,0.5,1.1,0.5
		C103.5,52.1,104.3,51.8,104.9,51.1 M104.7,43.6c0-0.4-0.1-0.6-0.4-0.9c-0.2-0.2-0.5-0.3-0.9-0.3c-0.3,0-0.6,0.1-0.8,0.2
		c-0.3,0.2-0.4,0.5-0.4,0.8c0,0.4,0.1,0.8,0.4,1.1l0.7,0.8l0.8-0.5C104.5,44.5,104.7,44.1,104.7,43.6z M110.5,51.9l-1.4,3
		c-0.9-0.5-1.6-1-2.1-1.5c-1.2,1-2.6,1.6-4.3,1.6c-1.4,0-2.6-0.3-3.5-1c-1-0.8-1.6-1.8-1.6-3.2c0-1.6,1-3,3.1-4.1
		c-0.6-0.7-1-1.2-1.1-1.4c-0.3-0.5-0.4-1.1-0.4-1.7c0-1,0.4-1.8,1.3-2.4c0.8-0.6,1.8-0.9,3-0.9c1.2,0,2.2,0.3,3,0.9
		c0.9,0.6,1.3,1.4,1.3,2.5c0,1.3-0.9,2.5-2.8,3.5l1.8,1.8c0.3-0.5,0.5-1,0.6-1.5l2.8,0.9c-0.2,1-0.6,1.9-1.2,2.7
		C109.3,51.2,109.8,51.5,110.5,51.9z"/>
	<path class="st0" d="M130.8,49.2c0,2.7-1.2,4.4-3.5,5.2c-0.8,0.3-1.7,0.4-2.6,0.4c-2,0-3.8-0.6-5.5-1.8l1.8-3.3
		c1.2,1.1,2.4,1.7,3.6,1.7c0.5,0,1-0.1,1.4-0.4c0.4-0.3,0.7-0.7,0.7-1.2c0-0.5-0.2-0.9-0.7-1.2c-0.4-0.2-1-0.5-1.8-0.7
		c-1-0.3-1.7-0.5-1.9-0.6c-0.4-0.2-0.8-0.4-1.1-0.6c-0.8-0.7-1.3-1.8-1.3-3.2c0-1.5,0.4-2.7,1.3-3.7c1-1.1,2.4-1.7,4.1-1.7
		c1.7,0,3.4,0.4,5,1.3l-1.6,3.2c-0.9-0.7-1.8-1.1-2.7-1.1c-0.4,0-0.8,0.1-1.2,0.3c-0.4,0.3-0.6,0.6-0.6,1c0,0.4,0.3,0.8,0.8,1.1
		c0.2,0.1,0.9,0.4,2.1,0.7c1.5,0.4,2.5,1,3.1,1.8C130.5,47.3,130.8,48.2,130.8,49.2"/>
	<rect x="133.4" y="38.6" class="st0" width="4.1" height="15.9"/>
	<path class="st0" d="M156.7,45.7c0,1.7-0.2,3.1-0.6,4.2c-0.6,1.7-1.6,2.9-2.9,3.8c-1.3,0.9-2.9,1.3-4.6,1.3c-2.9,0-5.1-1-6.7-3
		c-1.2-1.5-1.8-3.3-1.8-5.4c0-2.3,0.7-4.2,2.1-5.8c1.6-1.8,3.7-2.7,6.5-2.7c1.9,0,3.5,0.5,4.8,1.4c0.9,0.7,1.7,1.7,2.4,3l-3.9,1.6
		c-0.3-0.7-0.7-1.3-1.2-1.6c-0.6-0.5-1.4-0.8-2.3-0.8c-1.8,0-3,0.9-3.7,2.8c-0.3,0.7-0.4,1.4-0.4,2.1c0,1.5,0.5,2.8,1.4,3.8
		c0.7,0.7,1.7,1.1,2.8,1.1c1,0,1.9-0.3,2.5-0.9c0.4-0.4,0.7-1,0.8-1.8h-3.4v-3.1H156.7z"/>
	<polygon class="st0" points="175.2,54.5 171.1,54.5 163.5,44.8 163.5,54.5 159.4,54.5 159.4,38.6 163.5,38.6 171.1,48.3 
		171.1,38.6 175.2,38.6 	"/>
	<path class="st0" d="M189.5,49.2c0,2.7-1.2,4.4-3.5,5.2c-0.8,0.3-1.7,0.4-2.6,0.4c-2,0-3.8-0.6-5.5-1.8l1.8-3.3
		c1.2,1.1,2.4,1.7,3.6,1.7c0.5,0,1-0.1,1.4-0.4c0.4-0.3,0.7-0.7,0.7-1.2c0-0.5-0.2-0.9-0.7-1.2c-0.4-0.2-1-0.5-1.8-0.7
		c-1-0.3-1.7-0.5-1.9-0.6c-0.4-0.2-0.8-0.4-1.1-0.6c-0.8-0.7-1.3-1.8-1.3-3.2c0-1.5,0.4-2.7,1.3-3.7c1-1.1,2.4-1.7,4.1-1.7
		c1.7,0,3.4,0.4,5,1.3l-1.6,3.2c-0.9-0.7-1.8-1.1-2.7-1.1c-0.4,0-0.8,0.1-1.2,0.3c-0.4,0.3-0.6,0.6-0.6,1c0,0.4,0.3,0.8,0.8,1.1
		c0.2,0.1,0.9,0.4,2.1,0.7c1.5,0.4,2.5,1,3.1,1.8C189.2,47.3,189.5,48.2,189.5,49.2"/>
	<g>
		<path class="st1" d="M15.5,31.3C24.9,38.9,39.8,34,40,19.1L22,19l0,4.8l11.2,0c-4.6,9.4-17.6,5.1-16.7-4.9c0.6-6.8,8.6-11,14.4-6
			c1.4,1.2,0.6,1,3.2,1c1.5,0,3,0,4.4,0C36.7,8.2,31,4.1,23,5.2c-3.8,0.5-6,2-8,4.1C9.1,15.6,8.7,25.7,15.5,31.3L15.5,31.3z"/>
		<polygon class="st2" points="107.2,34.2 122.7,34.2 122.7,29.2 112.8,29.1 112.8,22.2 122.7,22.1 122.7,17.1 112.8,17.1 
			112.8,10.7 122.7,10.6 122.6,5.5 107.3,5.5 		"/>
		<polygon class="st1" points="43.4,34.2 56.8,34.2 56.8,29.3 48.7,29.2 48.7,5.5 43.4,5.5 		"/>
		<path class="st2" d="M86.9,34.2c1.5-0.1,12.6,0.8,16.2-3c2.5-3.1,3.3-8.8-2.4-12.3c1.3-1.5,2.4-2,2.6-5c0.6-9.3-10.8-8.3-16.4-8.2
			V34.2z M92.2,29.1c9.3,2,8.8-8.9,0-7.1L92.2,29.1z M92.5,17c3.4,0.6,5.6-1.2,4.7-4.5c-1.1-1.5-2.7-2-5-1.7L92.5,17z"/>
		<path class="st3" d="M125.6,33.8V5.6h4v24.6H143v3.6H125.6z M145.6,9.7c0-0.6,0.2-1.1,0.6-1.5c0.4-0.4,0.9-0.6,1.5-0.6
			c0.6,0,1.1,0.2,1.5,0.6c0.4,0.4,0.6,0.9,0.6,1.5c0,0.6-0.2,1.1-0.6,1.5c-0.4,0.4-0.9,0.6-1.5,0.6c-0.6,0-1.1-0.2-1.5-0.6
			C145.8,10.8,145.6,10.3,145.6,9.7L145.6,9.7z M145.8,33.8V15.2h3.7v18.7H145.8z M164.7,33.2c-0.6,0.3-1.2,0.6-1.9,0.7
			c-0.7,0.2-1.4,0.2-2.1,0.2c-2.1,0-3.6-0.5-4.4-1.5c-0.9-1-1.3-2.8-1.3-5.5v-8.8h-3.2V18l6.5-7.2h0.4v4.3h5.8v3.2h-5.8V27
			c0,1.5,0.2,2.5,0.6,3c0.4,0.4,1.1,0.7,2.1,0.7c0.6,0,1.1-0.1,1.7-0.2c0.5-0.2,1.1-0.4,1.6-0.7V33.2z M184.1,31.8
			c-1.2,0.8-2.5,1.4-3.8,1.8c-1.3,0.4-2.7,0.6-4.1,0.6c-2.9,0-5.3-0.9-7-2.7c-1.8-1.8-2.6-4.3-2.6-7.3c0-2.8,0.9-5.1,2.5-6.8
			c1.7-1.7,3.9-2.6,6.6-2.6c2.7,0,4.8,0.9,6.4,2.6c1.6,1.8,2.4,4.1,2.4,7.1v0.5h-14c0.1,1.8,0.7,3.2,1.7,4.1c1,1,2.5,1.5,4.2,1.5
			c1.2,0,2.4-0.2,3.7-0.7c1.3-0.4,2.6-1.1,4-2V31.8z M170.4,22.5h9.9c-0.1-1.4-0.6-2.5-1.5-3.3c-0.9-0.8-2-1.2-3.2-1.2
			c-1.4,0-2.6,0.4-3.5,1.1C171.3,19.9,170.7,21,170.4,22.5L170.4,22.5z"/>
		<path class="st1" d="M70.5,5.7c7.9,0,14.3,6.4,14.3,14.3s-6.4,14.3-14.3,14.3c-7.9,0-14.3-6.4-14.3-14.3S62.6,5.7,70.5,5.7
			L70.5,5.7z M70.5,10.3c-5.4,0-9.7,4.3-9.7,9.7s4.3,9.7,9.7,9.7s9.7-4.3,9.7-9.7S75.9,10.3,70.5,10.3L70.5,10.3z"/>
		<path class="st4" d="M184.9,5c-1.9,0.2-3.2,1.8-3,3.7c0.2,1.8,1.8,3.2,3.7,3c0.7-0.1,1.2-0.3,1.8-0.7c0.1-0.1,0.3-0.3,0.4-0.4
			c1-1.3,1.1-2.9,0.1-4.3C187.2,5.5,186.1,4.9,184.9,5L184.9,5z M185.1,5.5c-0.9,0.1-1.5,0.5-2,0.9c-0.5,0.6-0.8,1.3-0.7,2.1
			c0.1,1.6,1.5,2.8,3,2.7c2.6-0.2,3.6-3.4,1.8-5C186.7,5.8,186,5.4,185.1,5.5L185.1,5.5z"/>
		<path class="st4" d="M184,9.9h0.5V8.6c0.6,0,0.9,0,1.2,0.3c0.2,0.2,0.4,0.6,0.4,1.1h0.5c0-0.6-0.3-1.2-0.6-1.4c0,0,0,0,0,0
			l0.2-0.1c0.5-0.4,0.5-1.1,0.1-1.5c-0.4-0.5-1.3-0.3-2.2-0.3V9.9z M184.5,8.1c0.3,0,0.7,0,1,0c0.7,0,0.7-1,0-1.1
			c-0.3,0-0.8,0-1.1,0V8.1z"/>
	</g>
</g>
</svg>
