<svg width="72" height="39" viewBox="0 0 72 39" fill="none" xmlns="http://www.w3.org/2000/svg">
    <path fill-rule="evenodd" clip-rule="evenodd" d="M16.188 39h39.687L72 19.625 55.875 0H16.187L0 19.563 16.188 39zM55 37.017H17.062L2.521 19.563 17.062 2.004H55l14.48 17.621L55 37.017zM17.042 19.29v6.827h-2.209V10.815h4.271c1.167 0 2.084.355 2.75 1.065.667.71 1 1.69 1 2.922 0 .96-.187 1.712-.541 2.255-.354.543-.834.96-1.459 1.274.375.125.688.376.917.73.23.355.375.877.438 1.525l.604 5.511h-2.188l-.562-5.303c-.063-.522-.209-.918-.417-1.148-.208-.23-.542-.355-.98-.355h-1.624zm0-6.472v4.468h1.833c.542 0 .98-.188 1.271-.543.313-.376.458-.919.458-1.691 0-.773-.166-1.336-.458-1.691-.292-.355-.73-.543-1.27-.543h-1.834zm13 12.986c-.584.376-1.271.564-2.042.564-.77 0-1.437-.188-2.041-.564-.605-.376-1.063-.918-1.396-1.607-.334-.69-.5-1.504-.5-2.443v-2.088c0-.919.166-1.733.5-2.443.333-.689.791-1.232 1.396-1.607.583-.376 1.27-.564 2.041-.564.771 0 1.438.188 2.042.564.604.375 1.062.918 1.396 1.607.333.69.5 1.503.5 2.443v2.088c0 .918-.167 1.754-.5 2.443-.334.689-.792 1.231-1.396 1.607zm-3.396-2.088c.354.439.792.668 1.354.668.563 0 1.021-.23 1.354-.668.334-.459.5-1.085.5-1.879v-2.296c0-.794-.166-1.42-.5-1.858-.354-.439-.791-.669-1.354-.669-.562 0-1.02.23-1.354.669-.333.438-.5 1.064-.5 1.858v2.296c0 .794.167 1.42.5 1.88zm13.48 1.733c-.626.606-1.48.919-2.542.919-1.188 0-2.146-.418-2.834-1.253-.729-.835-1.083-1.983-1.083-3.403v-2.025c0-1.44.354-2.568 1.083-3.403.73-.835 1.688-1.253 2.875-1.253 1.084 0 1.959.292 2.584.919.624.626 1.02 1.482 1.166 2.61l-1.896.459c-.25-1.336-.875-2.005-1.875-2.005-.562 0-1 .23-1.354.669-.354.438-.52 1.064-.52 1.858v2.317c0 .814.187 1.44.52 1.88.334.438.792.646 1.354.646.5 0 .896-.167 1.209-.522.291-.354.52-.835.625-1.482l1.916.46c-.187 1.127-.604 1.983-1.229 2.61zM45 18.895v7.223h-2.02V10.815H45v5.365c.188-.313.5-.584.938-.814.437-.23.916-.334 1.437-.334.938 0 1.688.313 2.23.919.541.605.812 1.461.812 2.547v7.62h-2.021v-7.223c0-.606-.167-1.065-.48-1.42-.312-.355-.707-.522-1.207-.522-.5 0-.917.167-1.23.522-.312.355-.479.814-.479 1.42zm13.563-2.673c.687.814 1.02 1.942 1.02 3.361l-.003 1.462h-5.538v.877c0 .835.166 1.461.5 1.9.354.438.77.668 1.291.668.459 0 .855-.167 1.146-.501.292-.314.5-.773.605-1.357l1.854.438c-.188.981-.584 1.775-1.188 2.38-.604.606-1.416.898-2.437.898-1.167 0-2.105-.438-2.813-1.274-.687-.835-1.041-1.983-1.041-3.403v-2.025c0-.94.166-1.754.5-2.463.333-.69.791-1.232 1.374-1.608.584-.376 1.23-.564 1.98-.564 1.166 0 2.062.397 2.75 1.211zm-1.396 1.274c-.334-.439-.771-.668-1.334-.668-.562 0-.979.23-1.27.668-.313.459-.48 1.064-.48 1.858v.25h3.563v-.334c0-.73-.167-1.336-.48-1.774z" fill="#0B41CD"/>
</svg>
