<svg width="813" height="222" viewBox="0 0 813 222" fill="none" xmlns="http://www.w3.org/2000/svg">
<path d="M290.861 164.291V45.4579H336.612C345.116 45.3801 353.56 46.903 361.501 49.9472C368.855 52.8613 375.58 57.1649 381.306 62.6227C386.898 68.0706 391.382 74.5496 394.51 81.702C397.761 89.1071 399.403 97.1177 399.329 105.205C399.42 113.286 397.8 121.296 394.576 128.707C391.477 135.798 386.987 142.196 381.372 147.522C375.622 152.934 368.903 157.211 361.567 160.132C353.626 163.176 345.182 164.699 336.678 164.621L290.861 164.291ZM315.486 142.373H336.282C341.392 142.398 346.458 141.434 351.202 139.534C355.712 137.715 359.818 135.023 363.283 131.612C366.71 128.221 369.426 124.181 371.272 119.729C373.174 115.009 374.139 109.963 374.11 104.874C374.151 99.8995 373.21 94.9654 371.34 90.3547C369.471 85.744 366.711 81.5473 363.217 78.005C359.667 74.5037 355.46 71.7388 350.837 69.8693C346.215 67.9999 341.268 67.0628 336.282 67.1119H315.486V142.373Z" fill="#111827"/>
<path d="M411.74 164.29V75.6269H435.111V85.4636C437.774 81.6964 441.322 78.642 445.444 76.5696C449.565 74.4973 454.134 73.4707 458.746 73.5803C462.102 73.4284 465.441 74.1327 468.45 75.6269V96.0266C466.659 95.2071 464.775 94.6085 462.839 94.2441C460.772 93.8465 458.672 93.6476 456.567 93.6499C452.168 93.5969 447.843 94.7869 444.089 97.0829C440.268 99.4388 437.163 102.795 435.111 106.788V164.29H411.74Z" fill="#111827"/>
<path d="M490.661 65.0655C488.919 65.0877 487.192 64.747 485.59 64.065C483.987 63.383 482.544 62.3747 481.352 61.1044C480.082 59.9128 479.074 58.4698 478.392 56.8671C477.71 55.2645 477.369 53.5374 477.391 51.7958C477.354 50.0228 477.687 48.2614 478.369 46.6244C479.051 44.9874 480.067 43.5109 481.352 42.2892C483.207 40.4186 485.579 39.1455 488.163 38.6336C490.747 38.1217 493.425 38.3943 495.853 39.4165C498.28 40.4388 500.347 42.1638 501.786 44.3698C503.226 46.5758 503.973 49.162 503.931 51.7958C503.962 53.5266 503.638 55.2455 502.98 56.8465C502.321 58.4474 501.342 59.8965 500.102 61.1044C498.898 62.3947 497.434 63.415 495.806 64.0978C494.179 64.7806 492.425 65.1104 490.661 65.0655ZM479.108 164.093V75.6284H502.412V164.291L479.108 164.093Z" fill="#111827"/>
<path d="M513.146 199.016V75.6276H536.12V82.9557C543.292 77.2928 552.202 74.2841 561.339 74.4393C569.347 74.3156 577.232 76.4183 584.115 80.513C590.87 84.5037 596.486 90.1645 600.422 96.9516C604.476 103.969 606.553 111.954 606.43 120.058C606.537 128.156 604.413 136.128 600.29 143.098C596.254 149.996 590.462 155.701 583.504 159.633C576.546 163.564 568.67 165.581 560.679 165.479C556.347 165.493 552.035 164.893 547.871 163.696C543.837 162.505 539.992 160.749 536.45 158.481V198.95L513.146 199.016ZM557.576 145.739C562.112 145.838 566.592 144.721 570.551 142.504C574.51 140.286 577.803 137.05 580.088 133.13C582.394 129.118 583.559 124.552 583.455 119.926C583.526 115.304 582.364 110.746 580.088 106.722C577.861 102.887 574.647 99.718 570.78 97.5457C566.756 95.2701 562.198 94.1079 557.576 94.1788C553.533 94.1297 549.519 94.8698 545.759 96.3574C542.186 97.8074 539 100.067 536.45 102.959V137.553C539.122 140.156 542.287 142.198 545.759 143.561C549.517 145.053 553.532 145.793 557.576 145.739Z" fill="#111827"/>
<path d="M625.465 64.8375C621.963 64.8375 618.605 63.4464 616.129 60.9702C613.653 58.494 612.261 55.1356 612.261 51.6338C612.242 49.8693 612.577 48.1189 613.246 46.4861C613.915 44.8532 614.905 43.3711 616.157 42.1271C617.39 40.9034 618.853 39.9352 620.462 39.2782C622.071 38.6211 623.793 38.288 625.531 38.2981C629.033 38.2981 632.391 39.6892 634.868 42.1653C637.344 44.6415 638.735 47.9999 638.735 51.5017C638.735 55.0036 637.344 58.362 634.868 60.8381C632.391 63.3143 629.033 64.7054 625.531 64.7054L625.465 64.8375ZM613.912 163.865V75.4004H637.216V164.063L613.912 163.865Z" fill="#111827"/>
<path d="M665.515 164.29V95.0372H645.71V75.6278H665.515V67.1114C665.233 62.8965 665.859 58.67 667.351 54.7179C668.843 50.7658 671.166 47.18 674.164 44.2031C681.206 38.5003 690.143 35.6704 699.185 36.2809C701.627 36.2809 704.004 36.2809 706.513 36.2809C708.745 36.475 710.955 36.8728 713.114 37.4692V57.2747L707.503 56.2184C705.744 56.1095 703.98 56.1095 702.221 56.2184C698.667 55.9488 695.132 56.9553 692.253 59.0572C691.088 60.1723 690.188 61.5334 689.617 63.0411C689.046 64.5488 688.818 66.1649 688.952 67.7716V75.8259H713.114V95.2353H688.952V164.29H665.515Z" fill="#111827"/>
<path d="M732.788 200.93C730.807 200.93 728.827 200.93 726.978 200.93L722.291 200.336V179.936C724.966 180.449 727.687 180.693 730.411 180.662C734.282 180.853 738.11 179.777 741.315 177.597C744.519 175.417 746.926 172.252 748.17 168.581L749.49 165.148L714.963 75.627H740.644L762.76 136.034L787.781 75.627H813L772.135 171.684C769.668 177.896 766.286 183.703 762.1 188.914C758.742 192.935 754.461 196.083 749.623 198.091C744.244 200.105 738.529 201.069 732.788 200.93Z" fill="#111827"/>
<path d="M72.8576 206.412L70.9723 155.98C70.7464 153.182 71.4009 150.382 72.8441 147.974C74.2874 145.566 76.4473 143.669 79.0218 142.549C81.5962 141.428 84.4564 141.141 87.2024 141.726C89.9483 142.311 92.4427 143.74 94.3365 145.813L146.115 197.659C148.175 199.546 149.597 202.027 150.185 204.758C150.772 207.489 150.495 210.335 149.393 212.902C148.291 215.469 146.417 217.63 144.033 219.085C141.648 220.54 138.869 221.217 136.082 221.023L86.122 219.609C82.6318 219.557 79.298 218.152 76.8234 215.69C74.3489 213.228 72.9271 209.902 72.8576 206.412Z" fill="#7760F9"/>
<path d="M8.69012 125.813L51.3786 98.8805C53.6887 97.2666 56.4468 96.418 59.2646 96.4542C62.0824 96.4905 64.8178 97.4099 67.0855 99.0828C69.3532 100.756 71.039 103.098 71.9054 105.779C72.7718 108.461 72.7751 111.347 71.9148 114.03L52.9272 184.931C52.3188 187.656 50.878 190.125 48.8045 191.996C46.731 193.866 44.1272 195.046 41.3537 195.371C38.5802 195.697 35.7741 195.152 33.3239 193.812C30.8737 192.472 28.9006 190.404 27.6777 187.893L3.90955 143.926C2.19963 140.877 1.7424 137.282 2.63453 133.902C3.52666 130.522 5.69822 127.621 8.69012 125.813Z" fill="#7760F9"/>
<path d="M46.3959 29.9332L90.9697 53.4994C93.5062 54.6993 95.6046 56.6616 96.9716 59.112C98.3386 61.5625 98.906 64.3788 98.5945 67.1675C98.283 69.9562 97.1082 72.5778 95.2342 74.6663C93.3601 76.7548 90.8805 78.2056 88.1418 78.8163L17.3758 97.8039C14.7357 98.6048 11.9133 98.5755 9.29036 97.72C6.66743 96.8644 4.37058 95.2238 2.71052 93.0202C1.05045 90.8166 0.107292 88.1562 0.00861852 85.3991C-0.0900546 82.6419 0.660523 79.9209 2.15882 77.6043L28.351 34.8485C30.1363 31.8514 33.0151 29.6642 36.381 28.7473C39.7469 27.8305 43.3372 28.2557 46.3959 29.9332Z" fill="#7760F9"/>
<path d="M148.202 14.649L150.087 65.0806C150.313 67.8792 149.658 70.6783 148.215 73.0866C146.772 75.4949 144.612 77.3918 142.037 78.5121C139.463 79.6324 136.603 79.92 133.857 79.3347C131.111 78.7494 128.617 77.3205 126.723 75.2477L74.9444 23.4021C72.8781 21.5117 71.4526 19.0241 70.8663 16.2855C70.28 13.547 70.5621 10.6938 71.6733 8.12306C72.7846 5.55236 74.6697 3.39208 77.0662 1.94293C79.4628 0.493792 82.2515 -0.172106 85.0442 0.0379357L134.735 1.45191C138.261 1.4512 141.646 2.83295 144.163 5.30043C146.681 7.76791 148.131 11.1243 148.202 14.649Z" fill="#7760F9"/>
<path d="M212.436 95.2449L169.747 122.178C167.436 123.665 164.724 124.41 161.977 124.312C159.23 124.213 156.579 123.276 154.379 121.627C152.18 119.978 150.538 117.695 149.675 115.085C148.811 112.475 148.767 109.664 149.548 107.028L168.401 36.1948C169.009 33.4693 170.45 31.0004 172.523 29.1299C174.597 27.2594 177.201 26.0798 179.974 25.7544C182.748 25.4289 185.554 25.9738 188.004 27.3135C190.454 28.6533 192.427 30.7216 193.65 33.2322L217.418 77.1326C219.111 80.2058 219.537 83.8182 218.607 87.201C217.676 90.5838 215.462 93.4699 212.436 95.2449Z" fill="#7760F9"/>
<path d="M174.731 191.126L130.157 167.56C127.621 166.36 125.522 164.398 124.155 161.947C122.788 159.497 122.221 156.681 122.532 153.892C122.844 151.103 124.019 148.482 125.893 146.393C127.767 144.305 130.246 142.854 132.985 142.243L203.818 123.256C206.454 122.475 209.265 122.519 211.875 123.383C214.485 124.246 216.768 125.888 218.417 128.087C220.067 130.286 221.004 132.938 221.102 135.685C221.2 138.432 220.456 141.144 218.968 143.455L192.776 186.009C191.024 189.041 188.159 191.271 184.791 192.226C181.422 193.181 177.814 192.787 174.731 191.126Z" fill="#7760F9"/>
</svg>
